<svg width="19" height="25" viewBox="0 0 19 25" fill="none" xmlns="http://www.w3.org/2000/svg">
<path fill-rule="evenodd" clip-rule="evenodd" d="M12.0833 6.04172C12.0833 4.61701 10.9247 3.45839 9.49994 3.45839C8.07524 3.45839 6.91661 4.61701 6.91661 6.04172C6.91661 7.46643 8.07524 8.62506 9.49994 8.62506C10.9247 8.62506 12.0833 7.46643 12.0833 6.04172ZM14.6666 6.04167C14.6666 8.89109 12.3494 11.2083 9.49998 11.2083C6.65056 11.2083 4.33331 8.89109 4.33331 6.04167C4.33331 3.19225 6.65056 0.875 9.49998 0.875C12.3494 0.875 14.6666 3.19225 14.6666 6.04167ZM0.458313 22.8333C0.458313 17.8474 4.51544 13.7916 9.49998 13.7916C14.4845 13.7916 18.5416 17.8474 18.5416 22.8333C18.5416 23.5463 17.9643 24.1249 17.25 24.1249C16.5357 24.1249 15.9583 23.5463 15.9583 22.8333C15.9583 19.2722 13.0611 16.3749 9.49998 16.3749C5.93886 16.3749 3.04165 19.2722 3.04165 22.8333C3.04165 23.5463 2.46427 24.1249 1.74998 24.1249C1.03569 24.1249 0.458313 23.5463 0.458313 22.8333Z" fill="black"/>
</svg>
