<svg width="15" height="15" viewBox="0 0 15 15" fill="none" xmlns="http://www.w3.org/2000/svg">
<path fill-rule="evenodd" clip-rule="evenodd" d="M3.67508 1.83341C2.65933 1.83341 1.83341 2.65933 1.83341 3.67508C1.83341 8.90825 6.09121 13.1667 11.3251 13.1667C12.3401 13.1667 13.1667 12.3408 13.1667 11.3251C13.1667 11.2465 13.1618 11.1692 13.1519 11.0927L9.87937 10.3419C9.81421 10.4666 9.74267 10.6019 9.6775 10.728C9.3545 11.3442 9.12075 11.7919 8.52433 11.5517C6.18258 10.7301 4.27079 8.81758 3.4385 6.4475C3.18562 5.89146 3.66729 5.63929 4.27787 5.32054C4.40183 5.25537 4.53571 5.18525 4.65825 5.1215L3.90741 1.84829C3.82879 1.83837 3.75229 1.83341 3.67508 1.83341ZM11.3251 14.5834C5.30992 14.5834 0.416748 9.69025 0.416748 3.67508C0.416748 1.87804 1.87804 0.416748 3.67508 0.416748C3.85925 0.416748 4.04129 0.432331 4.21766 0.46279C4.38979 0.490415 4.56262 0.534331 4.73121 0.592415C4.96141 0.672456 5.13496 0.865831 5.1895 1.10383L6.15921 5.32833C6.21304 5.56067 6.14575 5.80433 5.98 5.97716C5.88367 6.07775 5.88154 6.07987 5.00321 6.53958C5.71437 8.0795 6.95042 9.31129 8.45917 9.99837C8.91958 9.11933 8.92241 9.1165 9.023 9.02017C9.19583 8.85441 9.44092 8.78996 9.67183 8.84096L13.897 9.81067C14.1343 9.86521 14.3277 10.038 14.407 10.2682C14.4651 10.4354 14.509 10.6082 14.5381 10.786C14.5678 10.961 14.5834 11.1423 14.5834 11.3251C14.5834 13.1221 13.1214 14.5834 11.3251 14.5834Z" fill="black"/>
</svg>
