<svg width="28" height="28" viewBox="0 0 28 28" fill="none" xmlns="http://www.w3.org/2000/svg">
<path fill-rule="evenodd" clip-rule="evenodd" d="M13.6716 18.6329C13.4164 18.6329 13.1623 18.5467 12.9552 18.3732L6.23882 12.7761C5.76419 12.381 5.69927 11.6747 6.09554 11.2C6.49069 10.7254 7.19591 10.6616 7.67165 11.0567L13.684 16.0672L19.6862 11.237C20.1675 10.8497 20.8728 10.9258 21.2601 11.4071C21.6474 11.8885 21.5713 12.5926 21.0899 12.981L14.3735 18.3855C14.1687 18.55 13.9202 18.6329 13.6716 18.6329" fill="black"/>
<mask id="mask0_180_369" style="mask-type:alpha" maskUnits="userSpaceOnUse" x="5" y="10" width="17" height="9">
<path fill-rule="evenodd" clip-rule="evenodd" d="M13.6716 18.6329C13.4164 18.6329 13.1623 18.5467 12.9552 18.3732L6.23882 12.7761C5.76419 12.381 5.69927 11.6747 6.09554 11.2C6.49069 10.7254 7.19591 10.6616 7.67165 11.0567L13.684 16.0672L19.6862 11.237C20.1675 10.8497 20.8728 10.9258 21.2601 11.4071C21.6474 11.8885 21.5713 12.5926 21.0899 12.981L14.3735 18.3855C14.1687 18.55 13.9202 18.6329 13.6716 18.6329Z" fill="white"/>
</mask>
<g mask="url(#mask0_180_369)">
<rect x="0.240234" y="0.722412" width="26.8656" height="26.8656" fill="#00AC4E"/>
</g>
</svg>
