<svg width="26" height="25" viewBox="0 0 26 25" fill="none" xmlns="http://www.w3.org/2000/svg">
<path fill-rule="evenodd" clip-rule="evenodd" d="M18.9111 15.0165H9.07115L6.95669 7.29511H22.7861L18.9111 15.0165ZM24.9819 5.94126C24.5079 5.17684 23.6864 4.72128 22.7848 4.72128H6.25149L5.45453 1.80904C5.30082 1.24924 4.79061 0.860596 4.20807 0.860596H1.62474C0.910444 0.860596 0.333069 1.43712 0.333069 2.14749C0.333069 2.85786 0.910444 3.43439 1.62474 3.43439H3.22124L6.83661 16.6418C6.99032 17.2016 7.50053 17.5902 8.08307 17.5902H19.7081C20.1976 17.5902 20.6445 17.3148 20.8641 16.8786L25.0956 8.44555C25.4999 7.64124 25.456 6.70567 24.9819 5.94126ZM7.43751 20.164C6.36801 20.164 5.50001 21.0275 5.50001 22.0944C5.50001 23.1612 6.36801 24.0247 7.43751 24.0247C8.50701 24.0247 9.37501 23.1612 9.37501 22.0944C9.37501 21.0275 8.50701 20.164 7.43751 20.164ZM18.4166 22.0944C18.4166 21.0275 19.2846 20.164 20.3541 20.164C21.4236 20.164 22.2916 21.0275 22.2916 22.0944C22.2916 23.1612 21.4236 24.0247 20.3541 24.0247C19.2846 24.0247 18.4166 23.1612 18.4166 22.0944Z" fill="black"/>
</svg>
