<svg width="11" height="11" viewBox="0 0 11 11" fill="none" xmlns="http://www.w3.org/2000/svg">
<path fill-rule="evenodd" clip-rule="evenodd" d="M8.74029 10.0662C8.6608 10.0662 8.58081 10.0476 8.50736 10.0094L5.94214 8.66915L3.37742 10.0094C3.20738 10.0974 3.00212 10.0823 2.84818 9.96962C2.69323 9.85693 2.61626 9.66626 2.64896 9.4776L3.13745 6.64625L1.06475 4.64147C0.926904 4.50815 0.877099 4.30792 0.93596 4.1248C0.99482 3.94268 1.15229 3.80937 1.34245 3.7822L4.21002 3.36565L5.49188 0.786846C5.66192 0.444749 6.22286 0.444749 6.3929 0.786846L7.67476 3.36565L10.5423 3.7822C10.7325 3.80937 10.89 3.94268 10.9488 4.1248C11.0077 4.30792 10.9579 4.50815 10.82 4.64147L8.74733 6.64625L9.23582 9.4776C9.26852 9.66626 9.19105 9.85693 9.0366 9.96962C8.94907 10.034 8.84493 10.0662 8.74029 10.0662Z" fill="black"/>
</svg>
